<svg width="17" height="18" viewBox="0 0 17 18" fill="none" xmlns="http://www.w3.org/2000/svg">
<path d="M4.96678 13.0776H11.6334M7.48152 1.21428L1.8296 5.61022C1.45179 5.90407 1.26289 6.051 1.1268 6.235C1.00625 6.39799 0.916444 6.5816 0.861799 6.77683C0.80011 6.99722 0.80011 7.23653 0.80011 7.71516V13.7443C0.80011 14.6777 0.80011 15.1444 0.981766 15.5009C1.14155 15.8145 1.39652 16.0695 1.71013 16.2293C2.06665 16.4109 2.53336 16.4109 3.46678 16.4109H13.1334C14.0669 16.4109 14.5336 16.4109 14.8901 16.2293C15.2037 16.0695 15.4587 15.8145 15.6185 15.5009C15.8001 15.1444 15.8001 14.6777 15.8001 13.7443V7.71516C15.8001 7.23653 15.8001 6.99722 15.7384 6.77683C15.6838 6.5816 15.594 6.39799 15.4734 6.235C15.3373 6.051 15.1484 5.90407 14.7706 5.61022L9.1187 1.21428C8.82593 0.986571 8.67954 0.872716 8.5179 0.82895C8.37527 0.790334 8.22495 0.790334 8.08232 0.82895C7.92068 0.872716 7.77429 0.986571 7.48152 1.21428Z" stroke="white" stroke-width="1.6" stroke-linecap="round" stroke-linejoin="round"/>
</svg>
